<svg width="18" height="17" viewBox="0 0 18 17" fill="none" xmlns="http://www.w3.org/2000/svg">
<path d="M9.38647 8.51002L15.452 2.43728C15.5595 2.32216 15.6181 2.1699 15.6153 2.01258C15.6125 1.85525 15.5486 1.70515 15.437 1.59388C15.3255 1.48262 15.1749 1.41889 15.0172 1.41611C14.8594 1.41333 14.7067 1.47173 14.5913 1.579L8.52578 7.63149L2.46029 1.58305C2.34403 1.48328 2.1943 1.43094 2.04101 1.43648C1.88773 1.44202 1.74219 1.50503 1.63347 1.61293C1.52475 1.72083 1.46087 1.86566 1.45459 2.01849C1.44831 2.17131 1.5001 2.32087 1.5996 2.43728L7.66508 8.51002L1.5996 14.5382C1.54264 14.5943 1.49742 14.6611 1.46656 14.7348C1.43569 14.8085 1.4198 14.8875 1.4198 14.9674C1.4198 15.0472 1.43569 15.1262 1.46656 15.1999C1.49742 15.2736 1.54264 15.3404 1.5996 15.3965C1.71378 15.5102 1.86856 15.5741 2.02995 15.5741C2.19133 15.5741 2.34611 15.5102 2.46029 15.3965L8.52578 9.34805L14.5913 15.3924C14.7054 15.5062 14.8602 15.57 15.0216 15.57C15.183 15.57 15.3378 15.5062 15.452 15.3924C15.5089 15.3363 15.5541 15.2695 15.585 15.1959C15.6159 15.1222 15.6318 15.0431 15.6318 14.9633C15.6318 14.8835 15.6159 14.8044 15.585 14.7308C15.5541 14.6571 15.5089 14.5903 15.452 14.5342L9.38647 8.51002Z" fill="#655C9F"/>
</svg>
