<svg width="22" height="22" viewBox="0 0 22 22" fill="none" xmlns="http://www.w3.org/2000/svg">
<path d="M19.4243 4.08373C18.9133 3.57099 18.3062 3.16415 17.6377 2.88656C16.9691 2.60896 16.2524 2.46606 15.5285 2.46606C14.8046 2.46606 14.0879 2.60896 13.4193 2.88656C12.7508 3.16415 12.1436 3.57099 11.6327 4.08373L8.45182 7.26457C8.27981 7.43657 8.18318 7.66986 8.18318 7.91311C8.18318 8.15636 8.27981 8.38965 8.45182 8.56165C8.62382 8.73365 8.85711 8.83029 9.10036 8.83029C9.34361 8.83029 9.5769 8.73365 9.7489 8.56165L12.9297 5.38082C13.2701 5.03955 13.6744 4.76866 14.1194 4.58361C14.5645 4.39857 15.0416 4.30301 15.5236 4.30237C16.0056 4.30173 16.483 4.39603 16.9286 4.57989C17.3741 4.76375 17.7791 5.03357 18.1204 5.37394C18.4616 5.71431 18.7325 6.11857 18.9176 6.56363C19.1026 7.00869 19.1982 7.48584 19.1988 7.96783C19.1994 8.44983 19.1051 8.92723 18.9213 9.37277C18.7374 9.81832 18.4676 10.2233 18.1272 10.5646L16.8347 11.8571L13.2139 15.4779L11.0002 17.6962L3.86848 10.5646C3.18137 9.877 2.79539 8.94474 2.79539 7.97269C2.79539 7.00065 3.18137 6.06838 3.86848 5.38082C4.2144 5.03454 4.62782 4.76309 5.08307 4.58332C5.96558 4.22941 6.95056 4.22941 7.83307 4.58332C8.05856 4.67449 8.31103 4.67235 8.53494 4.57737C8.75885 4.48239 8.93586 4.30235 9.02703 4.07686C9.1182 3.85137 9.11605 3.5989 9.02107 3.37499C8.9261 3.15108 8.74606 2.97407 8.52057 2.8829C7.19626 2.35487 5.71987 2.35487 4.39557 2.8829C3.55296 3.2228 2.80769 3.76615 2.22634 4.4644C1.64499 5.16265 1.24568 5.99405 1.06409 6.88429C0.882503 7.77454 0.924288 8.69591 1.18572 9.56606C1.44714 10.4362 1.92007 11.2281 2.56224 11.8708L3.85015 13.1587L9.70307 18.9887C9.95935 19.2454 10.286 19.4203 10.6417 19.4913C10.9974 19.5623 11.3662 19.5262 11.7014 19.3875C11.9243 19.2951 12.1268 19.1596 12.2972 18.9887L14.511 16.7796L19.4243 11.8617C20.4557 10.8302 21.0351 9.43132 21.0351 7.97269C21.0351 6.51407 20.4557 5.11517 19.4243 4.08373Z" fill="#333333"/>
</svg>
