<svg width="22" height="22" viewBox="0 0 22 22" fill="none" xmlns="http://www.w3.org/2000/svg">
<path d="M19.6093 7.55752C19.4477 7.3581 19.2438 7.19708 19.0124 7.08611C18.7809 6.97514 18.5277 6.91699 18.271 6.91585H14.3843L14.696 3.73502C14.7293 3.35294 14.6852 2.96806 14.5663 2.60343C14.4474 2.2388 14.2561 1.90191 14.0039 1.61293C13.7927 1.39727 13.539 1.22769 13.259 1.11489C12.979 1.00208 12.6786 0.948503 12.3768 0.957518C11.6355 0.979387 10.9199 1.23426 10.3316 1.68596C9.74331 2.13765 9.3123 2.7632 9.09975 3.47377L8.18309 6.93877H3.85642C3.34496 6.93873 2.85411 7.14033 2.49031 7.49983C2.12652 7.85934 1.91912 8.34776 1.91309 8.85918V17.8059C1.91309 18.0611 1.96335 18.3138 2.06101 18.5495C2.15867 18.7853 2.30182 18.9995 2.48228 19.18C2.66273 19.3605 2.87696 19.5036 3.11274 19.6013C3.34851 19.6989 3.60122 19.7492 3.85642 19.7492H7.41309C7.6562 19.7492 7.88936 19.6526 8.06127 19.4807C8.23318 19.3088 8.32975 19.0756 8.32975 18.8325V8.74918C8.70795 8.71529 9.0663 8.5648 9.35529 8.31849C9.64429 8.07219 9.84967 7.74223 9.94309 7.37418L10.8598 3.9046C10.9774 3.59187 11.1835 3.32009 11.4528 3.12235C11.7222 2.92461 12.0432 2.80943 12.3768 2.79085C12.4305 2.78479 12.4849 2.79114 12.5358 2.80942C12.5866 2.8277 12.6326 2.85741 12.6702 2.89627C12.8237 3.10486 12.8955 3.3625 12.8718 3.62043L12.4593 7.74543C12.4472 7.87254 12.4618 8.00078 12.5021 8.12193C12.5424 8.24309 12.6076 8.35448 12.6934 8.44898C12.7793 8.54348 12.884 8.619 13.0007 8.67069C13.1175 8.72239 13.2437 8.74912 13.3714 8.74918H18.2068L16.4331 17.9159H11.0798C10.8366 17.9159 10.6035 18.0124 10.4316 18.1843C10.2597 18.3562 10.1631 18.5894 10.1631 18.8325C10.1631 19.0756 10.2597 19.3088 10.4316 19.4807C10.6035 19.6526 10.8366 19.7492 11.0798 19.7492H17.1893C17.4051 19.7531 17.6153 19.6808 17.783 19.545C17.9507 19.4092 18.065 19.2185 18.106 19.0067L20.0218 9.11127C20.0726 8.8379 20.0619 8.55666 19.9906 8.28793C19.9193 8.0192 19.789 7.7697 19.6093 7.55752ZM3.74642 17.8059V8.85918C3.74642 8.83001 3.75801 8.80203 3.77864 8.7814C3.79927 8.76077 3.82725 8.74918 3.85642 8.74918H6.49642V17.9159H3.85642C3.82725 17.9159 3.79927 17.9043 3.77864 17.8836C3.75801 17.863 3.74642 17.835 3.74642 17.8059Z" fill="#333333"/>
</svg>
