<svg width="22" height="22" viewBox="0 0 22 22" fill="none" xmlns="http://www.w3.org/2000/svg">
<path d="M19.6093 7.55749C19.4477 7.35807 19.2438 7.19705 19.0124 7.08608C18.7809 6.97511 18.5277 6.91695 18.271 6.91582H14.3843L14.696 3.73499C14.7293 3.3529 14.6852 2.96803 14.5663 2.6034C14.4474 2.23877 14.2561 1.90188 14.0039 1.6129C13.7927 1.39724 13.539 1.22766 13.259 1.11486C12.979 1.00205 12.6786 0.948473 12.3768 0.957487C11.6355 0.979356 10.9199 1.23423 10.3316 1.68593C9.74331 2.13762 9.3123 2.76317 9.09975 3.47374L8.18309 6.93874H3.85642C3.34496 6.9387 2.85411 7.1403 2.49031 7.4998C2.12652 7.8593 1.91912 8.34773 1.91309 8.85915V17.8058C1.91309 18.061 1.96335 18.3137 2.06101 18.5495C2.15867 18.7853 2.30182 18.9995 2.48228 19.18C2.66273 19.3604 2.87696 19.5036 3.11274 19.6012C3.34851 19.6989 3.60122 19.7492 3.85642 19.7492H7.41309C7.6562 19.7492 7.88936 19.6526 8.06127 19.4807C8.23318 19.3088 8.32975 19.0756 8.32975 18.8325V8.74915C8.70795 8.71526 9.0663 8.56477 9.35529 8.31846C9.64429 8.07216 9.84967 7.7422 9.94309 7.37415L10.8598 3.90457C10.9774 3.59184 11.1835 3.32006 11.4528 3.12232C11.7222 2.92458 12.0432 2.8094 12.3768 2.79082C12.4305 2.78476 12.4849 2.79111 12.5358 2.80939C12.5866 2.82767 12.6326 2.85738 12.6702 2.89624C12.8237 3.10483 12.8955 3.36247 12.8718 3.6204L12.4593 7.7454C12.4472 7.87251 12.4618 8.00075 12.5021 8.1219C12.5424 8.24306 12.6076 8.35445 12.6934 8.44895C12.7793 8.54345 12.884 8.61897 13.0007 8.67066C13.1175 8.72236 13.2437 8.74909 13.3714 8.74915H18.2068L16.4331 17.9158H11.0798C10.8366 17.9158 10.6035 18.0124 10.4316 18.1843C10.2597 18.3562 10.1631 18.5894 10.1631 18.8325C10.1631 19.0756 10.2597 19.3088 10.4316 19.4807C10.6035 19.6526 10.8366 19.7492 11.0798 19.7492H17.1893C17.4051 19.7531 17.6153 19.6808 17.783 19.5449C17.9507 19.4091 18.065 19.2185 18.106 19.0067L20.0218 9.11124C20.0726 8.83787 20.0619 8.55663 19.9906 8.2879C19.9193 8.01917 19.789 7.76967 19.6093 7.55749ZM3.74642 17.8058V8.85915C3.74642 8.82998 3.75801 8.802 3.77864 8.78137C3.79927 8.76074 3.82725 8.74915 3.85642 8.74915H6.49642V17.9158H3.85642C3.82725 17.9158 3.79927 17.9042 3.77864 17.8836C3.75801 17.863 3.74642 17.835 3.74642 17.8058Z" fill="white"/>
</svg>
