<svg width="26" height="26" viewBox="0 0 26 26" fill="none" xmlns="http://www.w3.org/2000/svg">
<path d="M3.24967 2.16675C3.5342 2.16675 3.81594 2.22279 4.07882 2.33168C4.34169 2.44056 4.58054 2.60016 4.78173 2.80136C4.98293 3.00255 5.14252 3.24141 5.2514 3.50428C5.36029 3.76715 5.41633 4.0489 5.41632 4.33343V21.6667C5.41632 22.2414 5.18805 22.7925 4.78172 23.1988C4.3754 23.6051 3.8243 23.8334 3.24967 23.8334C2.67503 23.8334 2.12393 23.6051 1.71761 23.1988C1.31128 22.7925 1.08301 22.2414 1.08301 21.6667V4.33343C1.083 4.0489 1.13904 3.76715 1.24793 3.50428C1.35681 3.24141 1.51641 3.00255 1.7176 2.80136C1.91879 2.60016 2.15764 2.44056 2.42052 2.33168C2.68339 2.22279 2.96513 2.16675 3.24967 2.16675ZM12.9997 7.58343C13.5743 7.58343 14.1254 7.8117 14.5317 8.21803C14.9381 8.62436 15.1663 9.17546 15.1663 9.75009V16.2501C15.1663 16.8247 14.9381 17.3758 14.5317 17.7821C14.1254 18.1885 13.5743 18.4167 12.9997 18.4167C12.425 18.4167 11.8739 18.1885 11.4676 17.7821C11.0613 17.3758 10.833 16.8247 10.833 16.2501V9.75009C10.833 9.17546 11.0613 8.62436 11.4676 8.21803C11.8739 7.8117 12.425 7.58343 12.9997 7.58343ZM22.7497 4.87509C24.1941 4.87509 24.9163 5.59731 24.9163 7.04175V18.9584C24.9163 20.4029 24.1941 21.1251 22.7497 21.1251C21.3052 21.1251 20.583 20.4029 20.583 18.9584V7.04175C20.583 5.59731 21.3052 4.87509 22.7497 4.87509Z" fill="#008A27"/>
</svg>
