<svg width="22" height="22" viewBox="0 0 22 22" fill="none" xmlns="http://www.w3.org/2000/svg">
<path d="M19.2498 3.20825H13.8828C13.3745 3.20898 12.8713 3.31023 12.4023 3.50617C12.1766 3.60381 11.9603 3.72194 11.7561 3.85909C11.5538 3.99139 11.3664 4.14505 11.1969 4.31742C11.1282 4.38617 11.064 4.45492 10.9998 4.52825C10.9357 4.45492 10.8715 4.38617 10.8028 4.31742C10.6333 4.14505 10.4459 3.99139 10.2436 3.85909C10.0394 3.72194 9.82309 3.60381 9.59734 3.50617C9.12833 3.31023 8.62521 3.20898 8.11692 3.20825H2.74984C2.50908 3.20825 2.27068 3.25567 2.04825 3.34781C1.82582 3.43994 1.62372 3.57498 1.45347 3.74522C1.28323 3.91546 1.14819 4.11757 1.05606 4.34C0.963924 4.56243 0.916504 4.80083 0.916504 5.04159V7.8145C0.916541 8.05759 1.01313 8.29071 1.18504 8.46259C1.35694 8.63447 1.59008 8.73103 1.83317 8.73103C2.07626 8.73103 2.3094 8.63447 2.4813 8.46259C2.65321 8.29071 2.7498 8.05759 2.74984 7.8145V5.04159H8.11692C8.2509 5.04168 8.38451 5.0555 8.51567 5.08284C8.64165 5.10775 8.76459 5.14616 8.88234 5.19742C8.99938 5.24605 9.11143 5.30592 9.21692 5.37617C9.42619 5.51815 9.6066 5.69857 9.74859 5.90784C9.81884 6.01333 9.8787 6.12538 9.92734 6.24242C9.97859 6.36017 10.017 6.4831 10.0419 6.60909C10.0693 6.74024 10.0831 6.87386 10.0832 7.00784V10.0833C10.0832 10.3264 10.1797 10.5595 10.3517 10.7314C10.5236 10.9033 10.7567 10.9999 10.9998 10.9999C11.243 10.9999 11.4761 10.9033 11.648 10.7314C11.8199 10.5595 11.9165 10.3264 11.9165 10.0833V7.00784C11.9166 6.87386 11.9304 6.74024 11.9578 6.60909C11.9827 6.4831 12.0211 6.36017 12.0723 6.24242C12.121 6.12538 12.1808 6.01333 12.2511 5.90784C12.3964 5.70136 12.5763 5.5215 12.7828 5.37617C12.8882 5.30592 13.0003 5.24605 13.1173 5.19742C13.2351 5.14616 13.358 5.10775 13.484 5.08284C13.6152 5.0555 13.7488 5.04168 13.8828 5.04159H19.2498V16.0141H12.8332C12.6912 16.0136 12.5511 16.046 12.4239 16.1088C12.2966 16.1716 12.1857 16.2632 12.0998 16.3762C12.0688 16.4194 12.0351 16.4607 11.999 16.4999C11.963 16.5374 11.9248 16.5726 11.8844 16.6053C11.8448 16.6414 11.8018 16.6736 11.7561 16.7016C11.7145 16.7319 11.67 16.758 11.6232 16.7795C11.578 16.8055 11.5304 16.827 11.4811 16.8437L11.3298 16.8941L11.174 16.9216C11.0644 16.9353 10.9536 16.9353 10.844 16.9216L10.6882 16.8941L10.5415 16.8712L10.3994 16.8116C10.3087 16.7592 10.2214 16.7011 10.1382 16.6374L10.0236 16.5274C9.98751 16.4882 9.95384 16.4469 9.92275 16.4037C9.83459 16.2875 9.71998 16.1941 9.58845 16.1311C9.45693 16.0681 9.31227 16.0374 9.1665 16.0416H2.74984V11.9166C2.7498 11.6735 2.65321 11.4404 2.4813 11.2685C2.3094 11.0966 2.07626 11.0001 1.83317 11.0001C1.59008 11.0001 1.35694 11.0966 1.18504 11.2685C1.01313 11.4404 0.916541 11.6735 0.916504 11.9166V16.0416C0.916504 16.2823 0.963924 16.5207 1.05606 16.7432C1.14819 16.9656 1.28323 17.1677 1.45347 17.3379C1.62372 17.5082 1.82582 17.6432 2.04825 17.7354C2.27068 17.8275 2.50908 17.8749 2.74984 17.8749H8.76775L8.94192 18.0353C9.03313 18.1137 9.1296 18.1856 9.23067 18.2508C9.33177 18.3204 9.43743 18.3832 9.54692 18.4387C9.65234 18.4937 9.76692 18.5441 9.8815 18.5899C9.99609 18.6358 10.1153 18.6678 10.239 18.6999C10.361 18.7317 10.485 18.7546 10.6103 18.7687C10.7396 18.7833 10.8697 18.7909 10.9998 18.7916C11.1281 18.7987 11.2566 18.7987 11.3848 18.7916C11.5116 18.778 11.6373 18.755 11.7607 18.7228C11.8829 18.6892 12.0021 18.6526 12.1182 18.6128C12.2328 18.567 12.3473 18.5166 12.4573 18.4616C12.5648 18.4051 12.6689 18.3423 12.769 18.2737C12.8701 18.2086 12.9665 18.1366 13.0578 18.0583L13.2319 17.8978H19.2498C19.4906 17.8978 19.729 17.8504 19.9514 17.7583C20.1739 17.6661 20.376 17.5311 20.5462 17.3609C20.7164 17.1906 20.8515 16.9885 20.9436 16.7661C21.0357 16.5437 21.0832 16.3053 21.0832 16.0645V5.04159C21.0832 4.80083 21.0357 4.56243 20.9436 4.34C20.8515 4.11757 20.7164 3.91546 20.5462 3.74522C20.376 3.57498 20.1739 3.43994 19.9514 3.34781C19.729 3.25567 19.4906 3.20825 19.2498 3.20825Z" fill="#333333"/>
</svg>
