<svg width="16" height="16" viewBox="0 0 16 16" fill="none" xmlns="http://www.w3.org/2000/svg">
<path d="M14.752 5.39369C14.3805 4.5991 13.8495 3.88608 13.1734 3.27452C12.5001 2.66514 11.7161 2.18692 10.8438 1.85306C9.94279 1.50827 8.98592 1.33337 8.00008 1.33337C7.01425 1.33337 6.05737 1.50827 5.15633 1.85306C4.28415 2.18692 3.50008 2.66556 2.82675 3.27452C2.15081 3.88608 1.61977 4.5991 1.24831 5.39369C0.864677 6.20897 0.666081 7.09901 0.66675 8.00004C0.66675 9.87004 1.5231 11.6391 3.02769 12.9007C2.54852 13.5283 1.85696 14.0972 0.828625 14.7142C0.766117 14.7517 0.717626 14.8087 0.69058 14.8764C0.663533 14.9441 0.659422 15.0187 0.678876 15.089C0.69833 15.1593 0.740276 15.2212 0.79829 15.2653C0.856304 15.3095 0.927188 15.3334 1.00008 15.3334C2.01498 15.3334 2.948 15.2324 3.77331 15.0333C4.47685 14.8636 5.10498 14.6221 5.64331 14.3145C6.40687 14.5491 7.2013 14.6678 8.00008 14.6667C8.98592 14.6667 9.94279 14.4918 10.8438 14.147C11.716 13.8137 12.5001 13.3345 13.1733 12.7256C13.8494 12.114 14.3804 11.401 14.7519 10.6064C15.1348 9.79087 15.3333 8.90099 15.3333 8.00004C15.3333 7.09909 15.1349 6.20921 14.752 5.39369Z" fill="#5F5F5F"/>
<path d="M4.32082 6.12762H6.17675L6.61631 4.44446H7.69079L7.25123 6.12762H9.72579L10.1654 4.44446H11.2398L10.8003 6.12762H12.4446L12.298 6.72519H10.6538L9.98627 9.28479H11.8259L11.6794 9.88237H9.83975L9.40019 11.5556H8.30943L8.74899 9.88237H6.29071L5.85115 11.5556H4.76039L5.19995 9.88237H3.55566L3.70218 9.28479H5.34647L6.01395 6.72519H4.1743L4.32082 6.12762ZM6.43723 9.28479H8.89551L9.56299 6.72519H7.10471L6.43723 9.28479Z" fill="white"/>
</svg>
