<svg width="49" height="50" viewBox="0 0 49 50" fill="none" xmlns="http://www.w3.org/2000/svg">
<path d="M45.1778 17.0183C44.0402 14.585 42.4139 12.4014 40.3436 10.5286C38.2816 8.66241 35.8808 7.19788 33.2095 6.17548C30.4501 5.11959 27.5198 4.58398 24.5008 4.58398C21.4817 4.58398 18.5514 5.11959 15.792 6.17548C13.121 7.19788 10.7199 8.66369 8.6579 10.5286C6.5879 12.4014 4.96163 14.585 3.82408 17.0183C2.64923 19.5151 2.04105 22.2407 2.0431 25C2.0431 30.7267 4.6656 36.1443 9.27325 40.0078C7.80585 41.9297 5.688 43.6721 2.53882 45.5616C2.3474 45.6764 2.1989 45.8508 2.11607 46.0582C2.03324 46.2654 2.02065 46.4942 2.08023 46.7093C2.13981 46.9245 2.26826 47.1141 2.44593 47.2493C2.62359 47.3845 2.84066 47.4577 3.0639 47.4577C6.17192 47.4577 9.02921 47.1486 11.5567 46.5387C13.7112 46.019 15.6348 45.2796 17.2834 44.3376C19.6217 45.056 22.0546 45.4196 24.5008 45.4161C27.5198 45.4161 30.4501 44.8805 33.2095 43.8246C35.8805 42.8038 38.2816 41.3364 40.3433 39.4715C42.4136 37.5987 44.0399 35.4151 45.1774 32.9818C46.3501 30.4843 46.9581 27.7591 46.9581 25C46.9581 22.241 46.3504 19.5158 45.1778 17.0183Z" fill="#008A27"/>
<path d="M13.2333 19.2657H18.9169L20.263 14.1111H23.5536L22.2074 19.2657H29.7856L31.1318 14.1111H34.4223L33.0762 19.2657H38.1117L37.663 21.0957H32.6275L30.5833 28.9343H36.2171L35.7684 30.7643H30.1346L28.7885 35.8884H25.4481L26.7942 30.7643H19.2659L17.9198 35.8884H14.5794L15.9255 30.7643H10.89L11.3387 28.9343H16.3742L18.4183 21.0957H12.7846L13.2333 19.2657ZM19.7146 28.9343H27.243L29.2871 21.0957H21.7587L19.7146 28.9343Z" fill="white"/>
</svg>
