<svg width="1439" height="641" viewBox="0 0 1439 641" fill="none" xmlns="http://www.w3.org/2000/svg">
<path opacity="0.5" d="M220.129 24H1286.97C1370.38 24 1438 91.6177 1438 175.028V175.028C1438 258.439 1370.38 326.057 1286.97 326.057H147.972C66.8014 326.057 0.999977 391.858 0.999977 473.028V473.028C0.999977 554.198 66.8015 620 147.972 620H1038.17" stroke="#3EB761" stroke-width="2"/>
<path d="M220.527 20.8981L197.19 1.89808C196.477 1.31718 195.585 1 194.665 1H33.5943C31.3852 1 29.5943 2.79086 29.5943 5V43C29.5943 45.2091 31.3852 47 33.5944 47H194.665C195.585 47 196.477 46.6828 197.19 46.1019L220.527 27.1019C222.493 25.5013 222.493 22.4987 220.527 20.8981Z" stroke="#EEEEEE" stroke-width="2"/>
<path d="M1039.42 614.141L1058.83 595.141C1059.58 594.41 1060.59 594 1061.63 594H1194.5C1196.71 594 1198.5 595.791 1198.5 598V636C1198.5 638.209 1196.71 640 1194.5 640H1061.63C1060.59 640 1059.58 639.59 1058.83 638.859L1039.42 619.859C1037.82 618.29 1037.82 615.71 1039.42 614.141Z" stroke="#EEEEEE" stroke-width="2"/>
</svg>
