<svg width="40" height="40" viewBox="0 0 40 40" fill="none" xmlns="http://www.w3.org/2000/svg">
<g id="Frame" clip-path="url(#clip0_1348_4762)">
<path id="Vector" d="M0 26.6667C0 26.2246 0.175595 25.8007 0.488155 25.4882C0.800716 25.1756 1.22464 25 1.66667 25H38.3333C38.5522 25 38.769 25.0431 38.9712 25.1268C39.1735 25.2105 39.3572 25.3333 39.512 25.4881C39.6668 25.6428 39.7896 25.8266 39.8734 26.0288C39.9571 26.231 40.0003 26.4478 40.0003 26.6667C40.0003 26.8856 39.9571 27.1023 39.8734 27.3045C39.7896 27.5068 39.6668 27.6905 39.512 27.8453C39.3572 28 39.1735 28.1228 38.9712 28.2065C38.769 28.2903 38.5522 28.3334 38.3333 28.3333H1.66667C1.22464 28.3333 0.800716 28.1577 0.488155 27.8452C0.175595 27.5326 1.036e-08 27.1087 0 26.6667Z" fill="#999999"/>
<path id="Vector_2" d="M0.488344 27.8449C0.175892 27.5323 0.000366211 27.1085 0.000366211 26.6665C0.000366211 26.2246 0.175892 25.8007 0.488344 25.4882L13.8217 12.1549C14.136 11.8513 14.557 11.6833 14.994 11.6871C15.431 11.6909 15.849 11.8662 16.158 12.1752C16.4671 12.4842 16.6423 12.9022 16.6461 13.3392C16.6499 13.7762 16.4819 14.1972 16.1783 14.5115L2.84501 27.8449C2.53246 28.1573 2.10862 28.3328 1.66668 28.3328C1.22474 28.3328 0.80089 28.1573 0.488344 27.8449Z" fill="#999999"/>
</g>
<defs>
<clipPath id="clip0_1348_4762">
<rect width="40" height="40" fill="white"/>
</clipPath>
</defs>
</svg>
