<svg width="171" height="61" viewBox="0 0 171 61" fill="none" xmlns="http://www.w3.org/2000/svg">
<g clip-path="url(#clip0_1643_5475)">
<path d="M50.6612 33.3207C50.6612 34.2027 50.852 34.8804 51.0993 35.2899C51.4252 35.827 51.9102 36.0539 52.4055 36.0539C53.0447 36.0539 53.6282 35.8924 54.7539 34.3061C55.6562 33.034 56.7192 31.2482 57.4331 30.1295L58.6439 28.2331C59.485 26.9165 60.4588 25.4522 61.575 24.4603C62.4869 23.6502 63.4695 23.2003 64.4585 23.2003C66.12 23.2003 67.7021 24.1817 68.9129 26.0216C70.2381 28.036 70.8805 30.5746 70.8805 33.1939C70.8805 34.7511 70.58 35.8948 70.0672 36.7986C69.5727 37.6734 68.6076 38.5465 66.9842 38.5465V36.0539C68.3747 36.0539 68.7213 34.7528 68.7213 33.2626C68.7213 31.1399 68.2355 28.7847 67.1655 27.1015C66.4062 25.9069 65.4228 25.1776 64.3408 25.1776C63.1698 25.1776 62.2277 26.0773 61.1688 27.6814C60.6067 28.5343 60.0287 29.573 59.38 30.7458L58.6653 32.0349C57.2303 34.6276 56.867 35.2188 56.1507 36.1929C54.893 37.9003 53.819 38.5465 52.4063 38.5465C50.7288 38.5465 49.6691 37.8058 49.0124 36.6912C48.4766 35.7826 48.2126 34.5896 48.2126 33.2319L50.6612 33.3207Z" fill="black"/>
<path d="M50.1428 26.1969C51.2662 24.4337 52.8856 23.2003 54.7435 23.2003C55.8191 23.2003 56.8892 23.525 58.0062 24.4547C59.2281 25.4716 60.5303 27.1443 62.1545 29.9026L62.7372 30.8928C64.1444 33.2803 64.9441 34.5088 65.4124 35.0888C66.0142 35.8318 66.4364 36.0539 66.9841 36.0539C68.3738 36.0539 68.7204 34.7519 68.7204 33.2634L70.8804 33.1939C70.8804 34.7503 70.5799 35.8948 70.0671 36.7986C69.5718 37.6726 68.6067 38.5465 66.9841 38.5465C65.9745 38.5465 65.0809 38.3228 64.0927 37.3729C63.3327 36.6428 62.4447 35.3464 61.761 34.1825L59.7281 30.7199C58.7082 28.9834 57.7724 27.6879 57.2303 27.1015C56.6483 26.4699 55.8986 25.709 54.7045 25.709C53.737 25.709 52.9158 26.4012 52.2281 27.4585L50.1428 26.1969Z" fill="black"/>
<path d="M122.943 38.2759H120.754V36.7542C120.142 37.6508 119.029 38.536 117.227 38.536C114.327 38.536 112.39 36.0628 112.39 32.8361C112.39 29.5787 114.374 27.1451 117.35 27.1451C118.821 27.1451 119.974 27.7444 120.754 28.8033V27.406H122.943V38.2759ZM120.714 31.2094C120.266 30.0576 119.267 29.2096 117.799 29.2096C115.891 29.2096 114.67 30.5891 114.67 32.8361C114.67 35.0274 115.795 36.4731 117.707 36.4731C119.212 36.4731 120.286 35.5814 120.714 34.4717V31.2094ZM105.866 29.3339H103.739V27.4068H105.866V24.218H108.095V27.4068H111.326V29.3339H108.095V34.2221C108.095 35.8908 108.618 36.4836 109.906 36.4836C110.492 36.4836 110.829 36.4319 111.326 36.3479V38.2549C110.724 38.4303 110.101 38.5179 109.475 38.515C107.069 38.515 105.866 37.175 105.866 34.4927V29.3339ZM92.9314 32.8684C92.9314 29.5569 95.0318 27.1459 98.157 27.1459C101.23 27.1459 103.065 29.5262 103.065 33.0445V33.6914H95.221C95.4993 35.4038 96.6139 36.5579 98.4106 36.5579C99.8448 36.5579 100.742 36.1121 101.591 35.2955L102.818 36.8285C101.662 37.9124 100.191 38.5368 98.3287 38.5368C94.9468 38.5368 92.9298 36.0233 92.9298 32.8684H92.9314ZM98.1164 29.1264C96.4589 29.1264 95.4611 30.3977 95.2226 31.9719H100.846C100.73 30.35 99.813 29.1264 98.1164 29.1264ZM75.641 23.6857H78.4728L83.2889 32.5647L88.105 23.6857H90.8756V38.2759H88.5653V27.0934L84.3415 34.8368H82.1735L77.9504 27.0934V38.2759H75.641V23.6857ZM54.7046 25.709C53.7371 25.709 52.9159 26.4012 52.229 27.4601C51.2567 28.9543 50.6612 31.1803 50.6612 33.3207C50.6612 34.2027 50.852 34.8796 51.0993 35.2899L49.0124 36.6912C48.4766 35.7818 48.2126 34.5896 48.2126 33.2319C48.2126 30.7603 48.8781 28.1854 50.1437 26.1969C51.2654 24.4337 52.8865 23.2003 54.7444 23.2003L54.7046 25.709Z" fill="black"/>
</g>
<defs>
<clipPath id="clip0_1643_5475">
<rect width="74.7325" height="24.6758" fill="white" transform="translate(48.2126 18.3461)"/>
</clipPath>
</defs>
</svg>
