<svg width="170" height="37" viewBox="0 0 170 37" fill="none" xmlns="http://www.w3.org/2000/svg">
<g clip-path="url(#clip0_145_1794)">
<path d="M56.8013 21.1343C56.8991 21.0894 56.997 21.0408 57.0949 20.9922C58.1939 20.4279 59.052 19.6469 59.6693 18.6453C60.2865 17.6475 60.5951 16.5039 60.5951 15.2258C60.5951 13.8542 60.2865 12.6471 59.6693 11.6082C59.052 10.573 58.1939 9.75827 57.0949 9.16406C55.9921 8.56985 54.7312 8.27087 53.3048 8.27087H48.186C47.7645 8.27087 47.4145 8.40915 47.1322 8.68196C46.8461 8.95478 46.7031 9.30981 46.7031 9.74332V30.3389H49.6652V21.8368H53.3085C53.4929 21.8368 53.6661 21.8294 53.843 21.8256L59.4434 30.3576L62.8609 30.3352L56.7975 21.1305L56.8013 21.1343ZM49.6652 19.1236V10.9878H53.3085C54.1817 10.9878 54.9495 11.1672 55.6119 11.526C56.2781 11.881 56.7975 12.3818 57.1777 13.0246C57.5578 13.6636 57.746 14.3961 57.746 15.2258C57.746 15.9807 57.5578 16.6534 57.1777 17.2476C56.7975 17.8418 56.2781 18.3015 55.6119 18.6341C54.9458 18.9629 54.1817 19.1274 53.3085 19.1274H49.6652V19.1236Z" fill="white"/>
<path d="M76.9411 28.0331C76.0535 28.8704 74.7639 29.5945 73.7966 29.915C72.8294 30.2393 71.9077 30.4015 71.0277 30.4015C69.4421 30.4015 68.0311 30.0659 66.7983 29.3908C65.5656 28.7157 64.5983 27.7842 63.9004 26.5963C63.2025 25.4083 62.8535 24.0431 62.8535 22.5044C62.8535 20.9658 63.1835 19.5704 63.8435 18.3824C64.5035 17.1945 65.4177 16.263 66.5821 15.5879C67.7466 14.9129 69.0856 14.5772 70.599 14.5772C72.1125 14.5772 73.3718 14.9053 74.4415 15.5615C75.5111 16.2177 76.3304 17.1191 76.8956 18.2693C77.4608 19.4195 77.7415 20.747 77.7415 22.248C77.7415 22.61 77.6163 22.908 77.3697 23.1456C77.1194 23.3832 76.8046 23.5038 76.4215 23.5038H64.8639V21.2222H76.338L75.1622 22.0217C75.1432 21.0714 74.9497 20.219 74.5894 19.4686C74.2253 18.7181 73.7094 18.1222 73.0418 17.6847C72.3704 17.2473 71.5587 17.0285 70.6028 17.0285C69.5142 17.0285 68.5811 17.2661 67.8073 17.7413C67.0335 18.2165 66.4456 18.8689 66.0435 19.6948C65.6414 20.5207 65.4404 21.4598 65.4404 22.5044C65.4404 23.5491 65.6794 24.4806 66.1573 25.299C66.6352 26.1173 67.2952 26.7622 68.1373 27.2374C68.9794 27.7126 69.9428 27.9502 71.0353 27.9502C71.627 27.9502 72.2339 27.8408 72.8559 27.6221C73.478 27.4033 75.0408 26.6151 75.4239 26.3285L76.9449 28.0331H76.9411Z" fill="white"/>
<path d="M89.2488 21.577L95.1805 30.2921L92.0264 30.3071L87.269 23.397L89.2488 21.577Z" fill="white"/>
<path d="M80.5884 30.3257L86.7082 21.3266L88.4772 23.2886L83.8327 30.2846L80.5884 30.3257Z" fill="white"/>
<path d="M94.6722 14.7738L89.097 22.7412L87.0657 21.153L90.3515 16.1096C90.7596 15.5253 90.7989 15.478 91.1045 15.2455C91.5069 14.9378 92.0095 14.7793 92.662 14.7494C93.3185 14.716 93.8671 14.7498 94.6721 14.7775L94.6722 14.7738Z" fill="white"/>
<path d="M83.2488 14.7669C83.9017 14.7963 84.4014 14.9479 84.8095 15.2529C85.1166 15.4835 85.1562 15.5305 85.5681 16.1121L89.3487 21.7514L87.3278 23.3526L81.2388 14.8041C82.0436 14.7712 82.5959 14.7374 83.2487 14.7631L83.2488 14.7669Z" fill="white"/>
<path d="M113.757 22.6518C113.757 24.0569 113.471 25.3238 112.906 26.4525L110.569 24.782C110.836 24.1317 110.968 23.4216 110.968 22.6518C110.968 21.6315 110.746 20.7271 110.302 19.9236C109.854 19.1239 109.255 18.4923 108.495 18.0289C107.739 17.5692 106.873 17.3375 105.906 17.3375C104.938 17.3375 104.099 17.5692 103.331 18.0289C102.943 18.2643 102.597 18.5409 102.292 18.8585L100.109 17.2964C100.625 16.7209 101.227 16.2313 101.92 15.8277C103.098 15.1363 104.426 14.7962 105.906 14.7962C107.385 14.7962 108.743 15.1363 109.921 15.8277C111.1 16.5153 112.033 17.4496 112.722 18.638C113.414 19.8227 113.761 21.1606 113.761 22.6518H113.757Z" fill="white"/>
<path d="M111.924 27.9471C111.434 28.5339 110.862 29.0346 110.204 29.4457C109.101 30.1371 107.859 30.4772 106.474 30.4772C105.356 30.4772 104.325 30.2492 103.387 29.7858C102.447 29.3261 101.645 28.6983 100.982 27.906V36.9874H98.0806V22.6515C98.0994 21.209 98.4268 19.9122 99.0667 18.7537L101.314 20.3569C101.013 21.0483 100.866 21.8107 100.866 22.6515C100.866 23.6494 101.084 24.5463 101.521 25.3498C101.957 26.1495 102.559 26.7811 103.327 27.2445C104.095 27.7042 104.953 27.9359 105.902 27.9359C106.85 27.9359 107.735 27.7042 108.491 27.2445C108.92 26.9829 109.297 26.6728 109.62 26.3028L111.924 27.9509V27.9471Z" fill="white"/>
<path d="M139.151 15.4501C139.429 15.7267 139.696 16.1564 139.727 16.6385V30.3615H136.825V14.7251C136.825 14.7251 138.466 14.7625 139.151 15.4501ZM148.522 30.3615V22.0014C148.522 20.9288 148.323 20.0506 147.924 19.3742C147.525 18.694 146.991 18.1932 146.317 17.8606C145.643 17.5317 144.872 17.3673 143.998 17.3673C143.201 17.3673 142.482 17.528 141.834 17.8494C141.191 18.1708 140.675 18.5968 140.299 19.135C139.919 19.6731 139.73 20.2898 139.73 20.9849H137.939C137.939 19.7965 138.229 18.7388 138.808 17.8045C139.388 16.8702 140.178 16.134 141.183 15.5846C142.188 15.039 143.317 14.7662 144.571 14.7662C145.824 14.7662 147.051 15.0428 148.086 15.5996C149.121 16.1564 149.934 16.9711 150.532 18.0437C151.131 19.1163 151.428 20.4355 151.428 22.0014V30.3615H148.526H148.522Z" fill="white"/>
<path d="M167.871 28.059C167.371 28.6009 166.791 29.0605 166.132 29.4455C164.954 30.1369 163.629 30.4769 162.146 30.4769C160.664 30.4769 159.335 30.1369 158.149 29.4455C156.96 28.7578 156.023 27.8235 155.33 26.6351C154.638 25.4504 154.292 24.1125 154.292 22.6214C154.292 21.261 154.559 20.024 155.093 18.9216L157.43 20.5921C157.197 21.2087 157.08 21.8889 157.08 22.6214C157.08 23.6192 157.303 24.5236 157.747 25.3346C158.195 26.1418 158.8 26.7809 159.568 27.2443C160.336 27.7039 161.194 27.9357 162.143 27.9357C163.091 27.9357 163.976 27.7039 164.732 27.2443C165.082 27.0313 165.398 26.7809 165.677 26.4931L167.867 28.0627L167.871 28.059Z" fill="white"/>
<path d="M169.975 8.27045V22.6212C169.975 24.1086 169.629 25.4428 168.94 26.6275L166.689 25.013C167.021 24.288 167.186 23.4882 167.186 22.6212C167.186 21.6047 166.968 20.7003 166.531 19.908C166.098 19.1157 165.5 18.4916 164.74 18.0282C163.983 17.5686 163.121 17.3368 162.15 17.3368C161.179 17.3368 160.344 17.5686 159.576 18.0282C159.109 18.3123 158.703 18.6486 158.356 19.0522L156.061 17.4079C156.565 16.7837 157.163 16.2568 157.856 15.827C158.955 15.1356 160.197 14.7956 161.582 14.7956C162.7 14.7956 163.735 15.0235 164.683 15.4869C165.632 15.9466 166.43 16.5745 167.073 17.3667V10.3894C167.073 9.76906 167.367 9.16737 167.886 8.82355C168.334 8.52458 169 8.27045 169.975 8.27045V8.27045Z" fill="white"/>
<path d="M130.184 27.9885C128.754 29.446 126.756 30.3467 124.546 30.3467C120.199 30.3467 116.661 26.8375 116.661 22.5173C116.661 21.2317 116.977 20.0134 117.538 18.9371L119.755 20.5254C119.499 21.1383 119.352 21.811 119.352 22.5173C119.352 25.3576 121.682 27.6709 124.542 27.6709C125.848 27.6709 127.042 27.1888 127.956 26.3928L130.181 27.9848L130.184 27.9885Z" fill="white"/>
<path d="M132.435 22.5211C132.435 24.0085 132.017 25.395 131.291 26.5797L129.093 25.0101C129.507 24.2738 129.74 23.4218 129.74 22.5211C129.74 19.6808 127.41 17.3675 124.55 17.3675C123.044 17.3675 121.686 18.0066 120.737 19.0306L118.543 17.4609C119.992 15.768 122.149 14.6954 124.55 14.6954C128.901 14.6954 132.435 18.2084 132.435 22.5248V22.5211Z" fill="white"/>
<path d="M133.885 28.3642L132.405 30.4004L130.413 28.9699C130.975 28.3415 131.459 27.642 131.807 26.8739L133.885 28.3679L133.885 28.3642Z" fill="white"/>
</g>
<ellipse cx="9.05858" cy="33.7948" rx="3.21776" ry="3.20527" fill="white"/>
<ellipse cx="22.5591" cy="3.20527" rx="3.21776" ry="3.20527" fill="white"/>
<path fill-rule="evenodd" clip-rule="evenodd" d="M0.252723 15.6265C0.0867383 16.5243 -7.11378e-07 17.4497 -6.69689e-07 18.3953C-4.56146e-07 23.239 2.2759 27.5531 5.82059 30.3346C6.64729 29.5838 7.74682 29.126 8.95369 29.126C11.4344 29.126 13.4616 31.0603 13.5981 33.4974C14.1405 33.5556 14.6915 33.5854 15.2494 33.5854C21.4506 33.5854 26.7872 29.8984 29.1705 24.6049L25.3258 23.4112C23.4772 27.0889 19.6592 29.6138 15.2493 29.6138C9.02933 29.6138 3.98709 24.5911 3.98709 18.3954C3.98709 17.8607 4.02463 17.3348 4.09724 16.8201L0.252723 15.6265ZM26.161 21.1831C26.3898 20.2918 26.5114 19.3577 26.5114 18.3954C26.5114 12.1996 21.4692 7.17694 15.2493 7.17694C10.3992 7.17694 6.26523 10.2308 4.67954 14.5135L0.868317 13.3302C2.96221 7.43125 8.61034 3.2051 15.2494 3.2051C16.1828 3.2051 17.0966 3.28863 17.9837 3.44861C18.1108 5.89458 20.1421 7.83888 22.6292 7.83888C23.631 7.83888 24.5589 7.52341 25.3181 6.98676C28.4944 9.77053 30.4988 13.8497 30.4988 18.3953C30.4988 19.7693 30.3156 21.1006 29.9724 22.3665L26.161 21.1831Z" fill="white"/>
<path d="M33.7608 31.1527C33.1454 32.0727 32.4543 32.9377 31.6976 33.7427C31.637 33.8027 31.5412 33.8127 31.4756 33.7627L27.5206 30.7677C27.4399 30.7077 27.4349 30.5927 27.5055 30.5277C28.2773 29.7577 28.9634 28.9078 29.5435 27.9828C29.594 27.9028 29.705 27.8828 29.7806 27.9378L33.7205 30.9327C33.7911 30.9877 33.8062 31.0827 33.7608 31.1577L33.7608 31.1527Z" fill="white"/>
<defs>
<clipPath id="clip0_145_1794">
<rect width="123.324" height="28.729" fill="white" transform="translate(46.6763 8.27087)"/>
</clipPath>
</defs>
</svg>
