<svg width="170" height="37" viewBox="0 0 170 37" fill="none" xmlns="http://www.w3.org/2000/svg">
<g clip-path="url(#clip0_252_4065)">
<path d="M56.8003 21.1343C56.8982 21.0894 56.996 21.0408 57.0939 20.9922C58.1929 20.4279 59.051 19.6469 59.6683 18.6453C60.2855 17.6475 60.5942 16.5039 60.5942 15.2258C60.5942 13.8542 60.2855 12.6471 59.6683 11.6082C59.051 10.573 58.1929 9.75827 57.0939 9.16406C55.9911 8.56985 54.7302 8.27087 53.3038 8.27087H48.1851C47.7635 8.27087 47.4135 8.40915 47.1312 8.68196C46.8452 8.95478 46.7021 9.30981 46.7021 9.74332V30.3389H49.6642V21.8368H53.3075C53.492 21.8368 53.6651 21.8294 53.842 21.8256L59.4425 30.3576L62.86 30.3352L56.7965 21.1305L56.8003 21.1343ZM49.6642 19.1236V10.9878H53.3075C54.1807 10.9878 54.9485 11.1672 55.611 11.526C56.2771 11.881 56.7965 12.3818 57.1767 13.0246C57.5568 13.6636 57.745 14.3961 57.745 15.2258C57.745 15.9807 57.5568 16.6534 57.1767 17.2476C56.7965 17.8418 56.2771 18.3015 55.611 18.6341C54.9448 18.9629 54.1807 19.1274 53.3075 19.1274H49.6642V19.1236Z" fill="#008A27"/>
<path d="M76.9411 28.0331C76.0535 28.8704 74.7639 29.5945 73.7966 29.915C72.8294 30.2393 71.9077 30.4015 71.0277 30.4015C69.4421 30.4015 68.0311 30.0659 66.7983 29.3908C65.5656 28.7157 64.5983 27.7842 63.9004 26.5963C63.2025 25.4083 62.8535 24.0431 62.8535 22.5044C62.8535 20.9658 63.1835 19.5704 63.8435 18.3824C64.5035 17.1945 65.4177 16.263 66.5821 15.5879C67.7466 14.9129 69.0856 14.5772 70.599 14.5772C72.1125 14.5772 73.3718 14.9053 74.4415 15.5615C75.5111 16.2177 76.3304 17.1191 76.8956 18.2693C77.4608 19.4195 77.7415 20.747 77.7415 22.248C77.7415 22.61 77.6163 22.908 77.3697 23.1456C77.1194 23.3832 76.8046 23.5038 76.4215 23.5038H64.8639V21.2222H76.338L75.1622 22.0217C75.1432 21.0714 74.9497 20.219 74.5894 19.4686C74.2253 18.7181 73.7094 18.1222 73.0418 17.6847C72.3704 17.2473 71.5587 17.0285 70.6028 17.0285C69.5142 17.0285 68.5811 17.2661 67.8073 17.7413C67.0335 18.2165 66.4456 18.8689 66.0435 19.6948C65.6414 20.5207 65.4404 21.4598 65.4404 22.5044C65.4404 23.5491 65.6794 24.4806 66.1573 25.299C66.6352 26.1173 67.2952 26.7622 68.1373 27.2374C68.9794 27.7126 69.9428 27.9502 71.0353 27.9502C71.627 27.9502 72.2339 27.8408 72.8559 27.6221C73.478 27.4033 75.0408 26.6151 75.4239 26.3285L76.9449 28.0331H76.9411Z" fill="#008A27"/>
<path d="M89.2483 21.577L95.18 30.2921L92.0259 30.3071L87.2686 23.397L89.2483 21.577Z" fill="#008A27"/>
<path d="M80.5879 30.3257L86.7078 21.3266L88.4767 23.2886L83.8322 30.2846L80.5879 30.3257Z" fill="#008A27"/>
<path d="M94.6722 14.7738L89.097 22.7412L87.0657 21.153L90.3515 16.1096C90.7596 15.5253 90.7989 15.478 91.1045 15.2455C91.5069 14.9378 92.0095 14.7793 92.662 14.7494C93.3185 14.716 93.8671 14.7498 94.6721 14.7775L94.6722 14.7738Z" fill="#008A27"/>
<path d="M83.2483 14.7669C83.9012 14.7963 84.4009 14.9479 84.809 15.2529C85.1161 15.4835 85.1557 15.5305 85.5676 16.1121L89.3483 21.7514L87.3273 23.3526L81.2383 14.8041C82.0431 14.7712 82.5954 14.7374 83.2482 14.7631L83.2483 14.7669Z" fill="#008A27"/>
<path d="M113.756 22.6518C113.756 24.0569 113.47 25.3238 112.905 26.4525L110.568 24.782C110.835 24.1317 110.967 23.4216 110.967 22.6518C110.967 21.6315 110.745 20.7271 110.301 19.9236C109.853 19.1239 109.254 18.4923 108.494 18.0289C107.738 17.5692 106.872 17.3375 105.905 17.3375C104.937 17.3375 104.098 17.5692 103.33 18.0289C102.943 18.2643 102.596 18.5409 102.291 18.8585L100.108 17.2964C100.624 16.7209 101.226 16.2313 101.919 15.8277C103.097 15.1363 104.425 14.7962 105.905 14.7962C107.384 14.7962 108.742 15.1363 109.921 15.8277C111.099 16.5153 112.032 17.4496 112.721 18.638C113.413 19.8227 113.76 21.1606 113.76 22.6518H113.756Z" fill="#008A27"/>
<path d="M111.923 27.9471C111.434 28.5339 110.862 29.0346 110.203 29.4457C109.1 30.1371 107.858 30.4772 106.473 30.4772C105.355 30.4772 104.324 30.2492 103.387 29.7858C102.446 29.3261 101.644 28.6983 100.982 27.906V36.9874H98.0801V22.6515C98.0989 21.209 98.4263 19.9122 99.0662 18.7537L101.313 20.3569C101.012 21.0483 100.865 21.8107 100.865 22.6515C100.865 23.6494 101.084 24.5463 101.52 25.3498C101.957 26.1495 102.559 26.7811 103.327 27.2445C104.095 27.7042 104.953 27.9359 105.901 27.9359C106.85 27.9359 107.734 27.7042 108.491 27.2445C108.92 26.9829 109.296 26.6728 109.62 26.3028L111.923 27.9509V27.9471Z" fill="#008A27"/>
<path d="M139.15 15.4501C139.429 15.7267 139.696 16.1564 139.726 16.6385V30.3615H136.824V14.7251C136.824 14.7251 138.465 14.7625 139.15 15.4501ZM148.522 30.3615V22.0014C148.522 20.9288 148.322 20.0506 147.924 19.3742C147.525 18.694 146.99 18.1932 146.316 17.8606C145.643 17.5317 144.871 17.3673 143.998 17.3673C143.2 17.3673 142.481 17.528 141.834 17.8494C141.19 18.1708 140.675 18.5968 140.298 19.135C139.918 19.6731 139.73 20.2898 139.73 20.9849H137.938C137.938 19.7965 138.228 18.7388 138.808 17.8045C139.387 16.8702 140.178 16.134 141.183 15.5846C142.188 15.039 143.317 14.7662 144.57 14.7662C145.823 14.7662 147.05 15.0428 148.085 15.5996C149.12 16.1564 149.933 16.9711 150.532 18.0437C151.13 19.1163 151.428 20.4355 151.428 22.0014V30.3615H148.526H148.522Z" fill="#008A27"/>
<path d="M167.871 28.059C167.37 28.6009 166.79 29.0605 166.132 29.4455C164.954 30.1369 163.629 30.4769 162.146 30.4769C160.663 30.4769 159.334 30.1369 158.149 29.4455C156.96 28.7578 156.022 27.8235 155.33 26.6351C154.637 25.4504 154.291 24.1125 154.291 22.6214C154.291 21.261 154.558 20.024 155.093 18.9216L157.43 20.5921C157.197 21.2087 157.08 21.8889 157.08 22.6214C157.08 23.6192 157.302 24.5236 157.746 25.3346C158.194 26.1418 158.8 26.7809 159.568 27.2443C160.336 27.7039 161.194 27.9357 162.142 27.9357C163.091 27.9357 163.975 27.7039 164.732 27.2443C165.082 27.0313 165.398 26.7809 165.676 26.4931L167.867 28.0627L167.871 28.059Z" fill="#008A27"/>
<path d="M169.974 8.27045V22.6212C169.974 24.1086 169.628 25.4428 168.939 26.6275L166.688 25.013C167.02 24.288 167.185 23.4882 167.185 22.6212C167.185 21.6047 166.967 20.7003 166.53 19.908C166.098 19.1157 165.499 18.4916 164.739 18.0282C163.982 17.5686 163.12 17.3368 162.149 17.3368C161.178 17.3368 160.343 17.5686 159.575 18.0282C159.108 18.3123 158.702 18.6486 158.355 19.0522L156.06 17.4079C156.564 16.7837 157.162 16.2568 157.855 15.827C158.954 15.1356 160.196 14.7956 161.581 14.7956C162.699 14.7956 163.734 15.0235 164.682 15.4869C165.631 15.9466 166.429 16.5745 167.072 17.3667V10.3894C167.072 9.76906 167.366 9.16737 167.885 8.82355C168.333 8.52458 168.999 8.27045 169.974 8.27045V8.27045Z" fill="#008A27"/>
<path d="M130.184 27.9885C128.754 29.446 126.756 30.3467 124.546 30.3467C120.199 30.3467 116.661 26.8375 116.661 22.5173C116.661 21.2317 116.977 20.0134 117.538 18.9371L119.755 20.5254C119.499 21.1383 119.352 21.811 119.352 22.5173C119.352 25.3576 121.682 27.6709 124.542 27.6709C125.848 27.6709 127.042 27.1888 127.956 26.3928L130.181 27.9848L130.184 27.9885Z" fill="#008A27"/>
<path d="M132.435 22.5211C132.435 24.0085 132.017 25.395 131.291 26.5797L129.093 25.0101C129.507 24.2738 129.74 23.4218 129.74 22.5211C129.74 19.6808 127.41 17.3675 124.55 17.3675C123.044 17.3675 121.686 18.0066 120.737 19.0306L118.543 17.4609C119.992 15.768 122.149 14.6954 124.55 14.6954C128.901 14.6954 132.435 18.2084 132.435 22.5248V22.5211Z" fill="#008A27"/>
<path d="M133.885 28.3642L132.405 30.4004L130.413 28.9699C130.975 28.3415 131.459 27.642 131.807 26.8739L133.885 28.3679L133.885 28.3642Z" fill="#008A27"/>
</g>
<ellipse cx="9.05858" cy="33.7948" rx="3.21776" ry="3.20527" fill="#008A27"/>
<ellipse cx="22.5596" cy="3.20527" rx="3.21776" ry="3.20527" fill="#008A27"/>
<path fill-rule="evenodd" clip-rule="evenodd" d="M0.252723 15.6265C0.0867383 16.5243 -7.11378e-07 17.4497 -6.69689e-07 18.3953C-4.56146e-07 23.239 2.2759 27.5531 5.82059 30.3346C6.64729 29.5838 7.74682 29.126 8.95369 29.126C11.4344 29.126 13.4616 31.0603 13.5981 33.4974C14.1405 33.5556 14.6915 33.5854 15.2494 33.5854C21.4506 33.5854 26.7872 29.8984 29.1705 24.6049L25.3258 23.4112C23.4772 27.0889 19.6592 29.6138 15.2493 29.6138C9.02933 29.6138 3.98709 24.5911 3.98709 18.3954C3.98709 17.8607 4.02463 17.3348 4.09724 16.8201L0.252723 15.6265ZM26.161 21.1831C26.3898 20.2918 26.5114 19.3577 26.5114 18.3954C26.5114 12.1996 21.4692 7.17694 15.2493 7.17694C10.3992 7.17694 6.26523 10.2308 4.67954 14.5135L0.868317 13.3302C2.96221 7.43125 8.61034 3.2051 15.2494 3.2051C16.1828 3.2051 17.0966 3.28863 17.9837 3.44861C18.1108 5.89458 20.1421 7.83888 22.6292 7.83888C23.631 7.83888 24.5589 7.52341 25.3181 6.98676C28.4944 9.77053 30.4988 13.8497 30.4988 18.3953C30.4988 19.7693 30.3156 21.1006 29.9724 22.3665L26.161 21.1831Z" fill="#008A27"/>
<path d="M33.7608 31.1527C33.1454 32.0727 32.4543 32.9377 31.6976 33.7427C31.637 33.8027 31.5412 33.8127 31.4756 33.7627L27.5206 30.7677C27.4399 30.7077 27.4349 30.5927 27.5055 30.5277C28.2773 29.7577 28.9634 28.9078 29.5435 27.9828C29.594 27.9028 29.705 27.8828 29.7806 27.9378L33.7205 30.9327C33.7911 30.9877 33.8062 31.0827 33.7608 31.1577L33.7608 31.1527Z" fill="#008A27"/>
<defs>
<clipPath id="clip0_252_4065">
<rect width="123.324" height="28.729" fill="white" transform="translate(46.6758 8.27087)"/>
</clipPath>
</defs>
</svg>
